<svg width="20" height="20" viewBox="0 0 20 20" fill="none" xmlns="http://www.w3.org/2000/svg">
<path d="M20 10C20 15.5228 15.5228 20 10 20C4.47715 20 0 15.5228 0 10C0 4.47715 4.47715 0 10 0C15.5228 0 20 4.47715 20 10Z" fill="#3BE0FE"/>
<path d="M9.37296 5.35744L4.24454 14.1456C4.02273 14.5257 4.30118 15 4.74617 15H6.70302C7.51496 15 8.25896 14.5534 8.63131 13.8424L9.77479 11.6591L9.40859 11.4546L8.82258 11.115L8.81717 10.4452L8.82258 9.77541L9.40859 9.43589L10 9.1056L10.5914 9.43589L11.1774 9.77541L11.1828 10.4452L11.1774 11.115L10.5914 11.4546L10.1991 11.6737L11.5683 14.2382C11.8184 14.7067 12.3113 15 12.8485 15H15.2538C15.6988 15 15.9773 14.5257 15.7555 14.1456L10.627 5.35744C10.3489 4.88085 9.65108 4.88085 9.37296 5.35744Z" fill="#1A1148"/>
</svg>
