<svg width="50" height="50" viewBox="0 0 50 50" fill="none" xmlns="http://www.w3.org/2000/svg">
<circle cx="25" cy="25" r="25" fill="#176BF8"/>
<path d="M27.6484 11.0268V16.8647C27.6484 19.0739 29.4393 20.8647 31.6484 20.8647H37.4864" stroke="white" stroke-width="2" stroke-linecap="round"/>
<path d="M24.8379 39.8378H16C15.4477 39.8378 15 39.3901 15 38.8378V11.6754C15 11.1231 15.4477 10.6754 16 10.6754H27.5859C27.8511 10.6754 28.1055 10.7808 28.293 10.9683L37.1938 19.8691C37.3813 20.0566 37.4867 20.311 37.4867 20.5762V24.3782" stroke="white" stroke-width="2" stroke-linecap="round"/>
<path d="M20.9731 20.162H23.784" stroke="white" stroke-width="2" stroke-linecap="round"/>
<path d="M20.9731 33.5135H23.784" stroke="white" stroke-width="2" stroke-linecap="round"/>
<path d="M20.6221 26.8377H31.8654" stroke="white" stroke-width="2" stroke-linecap="round"/>
<path d="M30.8105 37.9812V39.1892C30.8105 39.7415 31.2583 40.1892 31.8105 40.1892H33.3026C34.4031 40.1892 35.455 39.7358 36.2107 38.9357L40.3325 34.5714C40.7041 34.1779 40.6953 33.5603 40.3126 33.1776L37.842 30.707C37.4515 30.3165 36.8183 30.3165 36.4278 30.707L31.9821 35.1527C31.232 35.9029 30.8105 36.9203 30.8105 37.9812Z" stroke="white" stroke-width="2" stroke-linecap="round"/>
</svg>
