<svg width="50" height="50" viewBox="0 0 50 50" fill="none" xmlns="http://www.w3.org/2000/svg">
<circle cx="25" cy="25" r="25" fill="#176BF8"/>
<path d="M28.6484 10.3514V16.1893C28.6484 18.3984 30.4393 20.1893 32.6484 20.1893H38.4864" stroke="white" stroke-width="2" stroke-linecap="round"/>
<path d="M25.8379 39.1624H17C16.4477 39.1624 16 38.7147 16 38.1624V11C16 10.4477 16.4477 10 17 10H28.5859C28.8511 10 29.1055 10.1054 29.293 10.2929L38.1938 19.1937C38.3813 19.3812 38.4867 19.6356 38.4867 19.9008V23.7028" stroke="white" stroke-width="2" stroke-linecap="round"/>
<path d="M21.9731 19.4866H24.784" stroke="white" stroke-width="2" stroke-linecap="round"/>
<path d="M21.9731 32.838H24.784" stroke="white" stroke-width="2" stroke-linecap="round"/>
<path d="M21.6221 26.1623H32.8654" stroke="white" stroke-width="2" stroke-linecap="round"/>
<path d="M36 35.0367C36 35.2664 35.9311 35.4822 35.7934 35.6843C35.6612 35.8863 35.4628 36.0563 35.1983 36.194C34.9394 36.3318 34.6309 36.4145 34.2727 36.442V37H33.7355V36.442C33.2176 36.4007 32.7989 36.2652 32.4793 36.0356C32.1598 35.806 32 35.5029 32 35.1263H33.0083C33.0248 35.3054 33.0937 35.4546 33.2149 35.5741C33.3361 35.6889 33.5096 35.7623 33.7355 35.7945V34.279C33.3664 34.2009 33.0661 34.1228 32.8347 34.0448C32.6033 33.9621 32.405 33.8335 32.2397 33.659C32.0799 33.4845 32 33.2457 32 32.9426C32 32.5614 32.1598 32.2468 32.4793 31.9989C32.7989 31.7463 33.2176 31.5993 33.7355 31.558V31H34.2727V31.558C34.7576 31.5947 35.146 31.7233 35.438 31.9437C35.7355 32.1596 35.9036 32.4581 35.9421 32.8393H34.9339C34.9174 32.6969 34.8512 32.5706 34.7355 32.4604C34.6198 32.3456 34.4656 32.2675 34.2727 32.2262V33.7141C34.6419 33.7876 34.9421 33.8657 35.1736 33.9483C35.405 34.0264 35.6006 34.1527 35.7603 34.3272C35.9201 34.4971 36 34.7336 36 35.0367ZM32.9587 32.9013C32.9587 33.0896 33.0248 33.2365 33.157 33.3421C33.2948 33.4478 33.4876 33.5327 33.7355 33.597V32.2055C33.4986 32.2285 33.3085 32.2997 33.1653 32.4191C33.0275 32.5385 32.9587 32.6992 32.9587 32.9013ZM34.2727 35.7945C34.5152 35.7623 34.7052 35.682 34.843 35.5534C34.9807 35.4202 35.0496 35.2618 35.0496 35.0781C35.0496 34.8944 34.9807 34.752 34.843 34.651C34.7107 34.5454 34.5207 34.4604 34.2727 34.3961V35.7945Z" fill="white"/>
<circle cx="34" cy="34" r="5.25" stroke="white" stroke-width="1.5"/>
</svg>
