<svg width="159" height="40" viewBox="0 0 159 40" fill="none" xmlns="http://www.w3.org/2000/svg">
<path d="M40 20C40 31.0457 31.0457 40 20 40C8.9543 40 0 31.0457 0 20C0 8.9543 8.9543 0 20 0C31.0457 0 40 8.9543 40 20Z" fill="#3BE0FE"/>
<path d="M18.7459 10.7149L8.48908 28.2913C8.04546 29.0515 8.60237 30 9.49234 30H13.406C15.0299 30 16.5179 29.1067 17.2626 27.6848L19.5496 23.3182L18.8172 22.9091L17.6452 22.2301L17.6343 20.8905L17.6452 19.5508L18.8172 18.8718L20 18.2112L21.1828 18.8718L22.3548 19.5508L22.3657 20.8905L22.3548 22.2301L21.1828 22.9091L20.3982 23.3473L23.1365 28.4764C23.6367 29.4134 24.6226 30 25.697 30H30.5077C31.3976 30 31.9545 29.0515 31.5109 28.2913L21.2541 10.7149C20.6978 9.76171 19.3022 9.76171 18.7459 10.7149Z" fill="#1A1148"/>
<path d="M63.952 23.872H59.504L58.768 26H56.416L60.432 14.816H63.04L67.056 26H64.688L63.952 23.872ZM63.344 22.08L61.728 17.408L60.112 22.08H63.344ZM70.7971 18.512C71.0851 18.0427 71.4585 17.6747 71.9171 17.408C72.3865 17.1413 72.9198 17.008 73.5171 17.008V19.36H72.9251C72.2211 19.36 71.6878 19.5253 71.3251 19.856C70.9731 20.1867 70.7971 20.7627 70.7971 21.584V26H68.5571V17.136H70.7971V18.512ZM80.2739 26L77.2659 22.224V26H75.0259V14.16H77.2659V20.896L80.2419 17.136H83.1539L79.2499 21.584L83.1859 26H80.2739ZM92.6096 21.376C92.6096 21.696 92.5883 21.984 92.5456 22.24H86.0656C86.119 22.88 86.343 23.3813 86.7376 23.744C87.1323 24.1067 87.6176 24.288 88.1936 24.288C89.0256 24.288 89.6176 23.9307 89.9696 23.216H92.3856C92.1296 24.0693 91.639 24.7733 90.9136 25.328C90.1883 25.872 89.2976 26.144 88.2416 26.144C87.3883 26.144 86.6203 25.9573 85.9376 25.584C85.2656 25.2 84.7376 24.6613 84.3536 23.968C83.9803 23.2747 83.7936 22.4747 83.7936 21.568C83.7936 20.6507 83.9803 19.8453 84.3536 19.152C84.727 18.4587 85.2496 17.9253 85.9216 17.552C86.5936 17.1787 87.367 16.992 88.2416 16.992C89.0843 16.992 89.8363 17.1733 90.4976 17.536C91.1696 17.8987 91.687 18.416 92.0496 19.088C92.423 19.7493 92.6096 20.512 92.6096 21.376ZM90.2896 20.736C90.279 20.16 90.071 19.7013 89.6656 19.36C89.2603 19.008 88.7643 18.832 88.1776 18.832C87.623 18.832 87.1536 19.0027 86.7696 19.344C86.3963 19.6747 86.167 20.1387 86.0816 20.736H90.2896ZM98.1806 26.144C97.3273 26.144 96.5593 25.9573 95.8766 25.584C95.194 25.2 94.6553 24.6613 94.2606 23.968C93.8766 23.2747 93.6846 22.4747 93.6846 21.568C93.6846 20.6613 93.882 19.8613 94.2766 19.168C94.682 18.4747 95.2313 17.9413 95.9246 17.568C96.618 17.184 97.3913 16.992 98.2446 16.992C99.098 16.992 99.8713 17.184 100.565 17.568C101.258 17.9413 101.802 18.4747 102.197 19.168C102.602 19.8613 102.805 20.6613 102.805 21.568C102.805 22.4747 102.597 23.2747 102.181 23.968C101.775 24.6613 101.221 25.2 100.517 25.584C99.8233 25.9573 99.0446 26.144 98.1806 26.144ZM98.1806 24.192C98.586 24.192 98.9646 24.096 99.3166 23.904C99.6793 23.7013 99.9673 23.4027 100.181 23.008C100.394 22.6133 100.501 22.1333 100.501 21.568C100.501 20.7253 100.277 20.08 99.8286 19.632C99.3913 19.1733 98.8526 18.944 98.2126 18.944C97.5726 18.944 97.034 19.1733 96.5966 19.632C96.17 20.08 95.9566 20.7253 95.9566 21.568C95.9566 22.4107 96.1646 23.0613 96.5806 23.52C97.0073 23.968 97.5406 24.192 98.1806 24.192ZM117.812 26H115.572L110.5 18.336V26H108.26V14.816H110.5L115.572 22.496V14.816H117.812V26ZM123.962 26.144C123.109 26.144 122.341 25.9573 121.658 25.584C120.975 25.2 120.437 24.6613 120.042 23.968C119.658 23.2747 119.466 22.4747 119.466 21.568C119.466 20.6613 119.663 19.8613 120.058 19.168C120.463 18.4747 121.013 17.9413 121.706 17.568C122.399 17.184 123.173 16.992 124.026 16.992C124.879 16.992 125.653 17.184 126.346 17.568C127.039 17.9413 127.583 18.4747 127.978 19.168C128.383 19.8613 128.586 20.6613 128.586 21.568C128.586 22.4747 128.378 23.2747 127.962 23.968C127.557 24.6613 127.002 25.2 126.298 25.584C125.605 25.9573 124.826 26.144 123.962 26.144ZM123.962 24.192C124.367 24.192 124.746 24.096 125.098 23.904C125.461 23.7013 125.749 23.4027 125.962 23.008C126.175 22.6133 126.282 22.1333 126.282 21.568C126.282 20.7253 126.058 20.08 125.61 19.632C125.173 19.1733 124.634 18.944 123.994 18.944C123.354 18.944 122.815 19.1733 122.378 19.632C121.951 20.08 121.738 20.7253 121.738 21.568C121.738 22.4107 121.946 23.0613 122.362 23.52C122.789 23.968 123.322 24.192 123.962 24.192ZM129.653 21.536C129.653 20.64 129.829 19.8453 130.181 19.152C130.544 18.4587 131.034 17.9253 131.653 17.552C132.272 17.1787 132.96 16.992 133.717 16.992C134.293 16.992 134.842 17.12 135.365 17.376C135.888 17.6213 136.304 17.952 136.613 18.368V14.16H138.885V26H136.613V24.688C136.336 25.1253 135.946 25.4773 135.445 25.744C134.944 26.0107 134.362 26.144 133.701 26.144C132.954 26.144 132.272 25.952 131.653 25.568C131.034 25.184 130.544 24.6453 130.181 23.952C129.829 23.248 129.653 22.4427 129.653 21.536ZM136.629 21.568C136.629 21.024 136.522 20.56 136.309 20.176C136.096 19.7813 135.808 19.4827 135.445 19.28C135.082 19.0667 134.693 18.96 134.277 18.96C133.861 18.96 133.477 19.0613 133.125 19.264C132.773 19.4667 132.485 19.7653 132.261 20.16C132.048 20.544 131.941 21.0027 131.941 21.536C131.941 22.0693 132.048 22.5387 132.261 22.944C132.485 23.3387 132.773 23.6427 133.125 23.856C133.488 24.0693 133.872 24.176 134.277 24.176C134.693 24.176 135.082 24.0747 135.445 23.872C135.808 23.6587 136.096 23.36 136.309 22.976C136.522 22.5813 136.629 22.112 136.629 21.568ZM149.313 21.376C149.313 21.696 149.291 21.984 149.249 22.24H142.769C142.822 22.88 143.046 23.3813 143.441 23.744C143.835 24.1067 144.321 24.288 144.897 24.288C145.729 24.288 146.321 23.9307 146.673 23.216H149.089C148.833 24.0693 148.342 24.7733 147.617 25.328C146.891 25.872 146.001 26.144 144.945 26.144C144.091 26.144 143.323 25.9573 142.641 25.584C141.969 25.2 141.441 24.6613 141.057 23.968C140.683 23.2747 140.497 22.4747 140.497 21.568C140.497 20.6507 140.683 19.8453 141.057 19.152C141.43 18.4587 141.953 17.9253 142.625 17.552C143.297 17.1787 144.07 16.992 144.945 16.992C145.787 16.992 146.539 17.1733 147.201 17.536C147.873 17.8987 148.39 18.416 148.753 19.088C149.126 19.7493 149.313 20.512 149.313 21.376ZM146.993 20.736C146.982 20.16 146.774 19.7013 146.369 19.36C145.963 19.008 145.467 18.832 144.881 18.832C144.326 18.832 143.857 19.0027 143.473 19.344C143.099 19.6747 142.87 20.1387 142.785 20.736H146.993ZM154.34 26.144C153.614 26.144 152.964 26.016 152.388 25.76C151.812 25.4933 151.353 25.136 151.012 24.688C150.681 24.24 150.5 23.744 150.468 23.2H152.724C152.766 23.5413 152.932 23.824 153.22 24.048C153.518 24.272 153.886 24.384 154.324 24.384C154.75 24.384 155.081 24.2987 155.316 24.128C155.561 23.9573 155.684 23.7387 155.684 23.472C155.684 23.184 155.534 22.9707 155.236 22.832C154.948 22.6827 154.484 22.5227 153.844 22.352C153.182 22.192 152.638 22.0267 152.212 21.856C151.796 21.6853 151.433 21.424 151.124 21.072C150.825 20.72 150.676 20.2453 150.676 19.648C150.676 19.1573 150.814 18.7093 151.092 18.304C151.38 17.8987 151.785 17.5787 152.308 17.344C152.841 17.1093 153.465 16.992 154.18 16.992C155.236 16.992 156.078 17.2587 156.708 17.792C157.337 18.3147 157.684 19.024 157.748 19.92H155.604C155.572 19.568 155.422 19.2907 155.156 19.088C154.9 18.8747 154.553 18.768 154.116 18.768C153.71 18.768 153.396 18.8427 153.172 18.992C152.958 19.1413 152.852 19.3493 152.852 19.616C152.852 19.9147 153.001 20.144 153.3 20.304C153.598 20.4533 154.062 20.608 154.692 20.768C155.332 20.928 155.86 21.0933 156.276 21.264C156.692 21.4347 157.049 21.7013 157.348 22.064C157.657 22.416 157.817 22.8853 157.828 23.472C157.828 23.984 157.684 24.4427 157.396 24.848C157.118 25.2533 156.713 25.5733 156.18 25.808C155.657 26.032 155.044 26.144 154.34 26.144Z" fill="white"/>
</svg>
