<svg width="50" height="50" viewBox="0 0 50 50" fill="none" xmlns="http://www.w3.org/2000/svg">
<circle cx="25" cy="25" r="25" fill="#176BF8"/>
<path d="M8 33.3211V23.5245C8 22.2094 9.06606 21.1434 10.3811 21.1434C11.6962 21.1434 12.7622 22.2094 12.7622 23.5245V33.3211C12.7622 34.6362 11.6962 35.7022 10.3811 35.7022C9.06606 35.7022 8 34.6362 8 33.3211Z" stroke="white" stroke-width="1.5"/>
<path d="M12.7625 23.366H17.7066C19.2492 23.366 20.7324 23.9587 21.8414 25.031C23.7319 26.8589 26.6359 29.6989 27.7295 30.9402C29.4076 32.8451 26.8678 34.9314 25.2803 33.5708C23.6929 32.2101 19.5657 29.3074 19.5657 29.3074" stroke="white" stroke-width="1.5"/>
<path d="M12.7625 34.4426H14.0737C15.7792 34.4426 17.4048 35.1992 18.8648 36.0806C19.0255 36.1776 19.1953 36.2754 19.3742 36.3727C21.0706 37.2958 22.2958 38.2075 24.2271 38.1969C26.1063 38.1867 27.6678 38.1969 29.8158 37.2445C31.9639 36.2921 39.1942 33.5455 41.1898 32.0942C43.1854 30.6428 41.1898 27.2412 38.5139 28.6019C35.8379 29.9625 27.3667 33.7975 27.3667 33.7975" stroke="white" stroke-width="1.5"/>
<circle cx="37.4664" cy="17.6668" r="2.65" stroke="white" stroke-width="1.5"/>
<circle cx="30.6668" cy="24.4666" r="2.65" stroke="white" stroke-width="1.5"/>
<circle cx="28.4" cy="15.4" r="2.65" stroke="white" stroke-width="1.5"/>
</svg>
