<svg width="50" height="50" viewBox="0 0 50 50" fill="none" xmlns="http://www.w3.org/2000/svg">
<circle cx="25" cy="25" r="25" fill="#176BF8"/>
<path d="M40 31.6666V18.3333C39.9994 17.7488 39.8451 17.1747 39.5526 16.6686C39.26 16.1625 38.8396 15.7423 38.3333 15.45L26.6667 8.78331C26.1599 8.49075 25.5851 8.33673 25 8.33673C24.4149 8.33673 23.8401 8.49075 23.3333 8.78331L11.6667 15.45C11.1604 15.7423 10.74 16.1625 10.4474 16.6686C10.1549 17.1747 10.0006 17.7488 10 18.3333V31.6666C10.0006 32.2512 10.1549 32.8253 10.4474 33.3314C10.74 33.8375 11.1604 34.2577 11.6667 34.55L23.3333 41.2166C23.8401 41.5092 24.4149 41.6632 25 41.6632C25.5851 41.6632 26.1599 41.5092 26.6667 41.2166L38.3333 34.55C38.8396 34.2577 39.26 33.8375 39.5526 33.3314C39.8451 32.8253 39.9994 32.2512 40 31.6666Z" stroke="white" stroke-width="2" stroke-linecap="round" stroke-linejoin="round"/>
<path d="M10.4502 16.6L25.0002 25.0166L39.5502 16.6" stroke="white" stroke-width="2" stroke-linecap="round" stroke-linejoin="round"/>
<path d="M25 41.8V25" stroke="white" stroke-width="2" stroke-linecap="round" stroke-linejoin="round"/>
</svg>
