<svg width="24" height="25" viewBox="0 0 24 25" fill="none" xmlns="http://www.w3.org/2000/svg">
<g clip-path="url(#clip0_518_429841)">
<path fill-rule="evenodd" clip-rule="evenodd" d="M11.9531 0.5C14.3265 0.5 16.6466 1.20379 18.62 2.52236C20.5934 3.84094 22.1314 5.71509 23.0397 7.9078C23.9479 10.1005 24.1856 12.5133 23.7225 14.8411C23.2595 17.1689 22.1166 19.3071 20.4384 20.9853C18.7602 22.6635 16.622 23.8064 14.2942 24.2694C11.9664 24.7324 9.55364 24.4948 7.36092 23.5866C5.16821 22.6783 3.29407 21.1402 1.97549 19.1668C0.656913 17.1935 -0.046875 14.8734 -0.046875 12.5C-0.046875 9.3174 1.21741 6.26516 3.46784 4.01472C5.71828 1.76428 8.77053 0.5 11.9531 0.5V0.5Z" fill="white"/>
<path fill-rule="evenodd" clip-rule="evenodd" d="M11.9529 3.07666L15.1099 7.79375L18.267 12.5119L11.9529 15.693L5.63867 12.4999L8.79576 7.78175L11.9529 3.07666ZM11.9529 16.9639L5.98885 13.7818L11.9529 21.9232L17.9169 13.7818L11.9529 16.9639Z" fill="#343434"/>
<path fill-rule="evenodd" clip-rule="evenodd" d="M11.9531 3.07666L15.1102 7.78175L18.2673 12.4999L11.9531 10.1163V3.07666Z" fill="#343434"/>
<path fill-rule="evenodd" clip-rule="evenodd" d="M11.9531 16.9639L17.9291 13.7817L11.9531 21.9352V16.9639Z" fill="#313131"/>
<path fill-rule="evenodd" clip-rule="evenodd" d="M11.9531 10.1162L18.2673 12.4998L11.9531 15.6809V10.1162Z" fill="#151515"/>
<path fill-rule="evenodd" clip-rule="evenodd" d="M11.9529 3.07666L8.79576 7.78175L5.63867 12.4999L11.9529 10.1163V3.07666Z" fill="#8C8C8C"/>
<path fill-rule="evenodd" clip-rule="evenodd" d="M11.9523 16.9639L5.98828 13.7817L11.9523 21.9352V16.9639Z" fill="#8A8A8A"/>
<path fill-rule="evenodd" clip-rule="evenodd" d="M11.9529 10.1162L5.63867 12.4998L11.9529 15.6809V10.1162Z" fill="#353535"/>
</g>
<defs>
<clipPath id="clip0_518_429841">
<rect width="24" height="24" fill="white" transform="translate(0 0.5)"/>
</clipPath>
</defs>
</svg>
