<svg width="40" height="40" viewBox="0 0 40 40" fill="none" xmlns="http://www.w3.org/2000/svg">
<circle cx="20" cy="20" r="20" fill="white"/>
<path d="M10.7667 16.0334C11.1411 16.1048 11.5291 16.0275 11.8455 15.8184C12.1618 15.6093 12.3806 15.2855 12.4538 14.9182L12.4547 14.9184C12.4715 14.8389 12.586 14.5222 12.7528 14.3299C12.8354 14.2306 12.9196 14.1604 13.0139 14.1122C13.1107 14.0648 13.2217 14.0255 13.4405 14.0233C13.5599 14.027 13.6656 14.0496 13.9159 14.2215C14.2846 14.4714 14.7812 15.0553 15.4215 15.6742C15.7478 15.9815 16.1237 16.3016 16.605 16.5646C17.0816 16.8266 17.6845 17.0203 18.3399 17.0179H18.359C19.5818 17.0179 20.5017 16.7197 21.1178 16.1643C21.6406 15.6942 21.8022 15.1477 21.8423 14.8489C21.8866 14.7637 21.94 14.6774 22.0005 14.6076C22.0835 14.5083 22.1677 14.4386 22.2623 14.3897C22.3584 14.3425 22.47 14.3034 22.6887 14.3012C22.8078 14.3049 22.9141 14.3273 23.1638 14.4994C23.5325 14.7487 24.0293 15.333 24.6699 15.9519C24.9961 16.2594 25.3725 16.5793 25.8535 16.8423C26.3302 17.1048 26.9331 17.298 27.5885 17.2958H27.6077C28.8306 17.2958 29.7504 16.9977 30.3666 16.442C30.9881 15.8828 31.1011 15.2113 31.1035 14.9827C31.1113 14.7974 31.0818 14.6124 31.0167 14.4383C30.9516 14.2641 30.8522 14.1043 30.7241 13.9679C30.596 13.8315 30.4418 13.7211 30.2702 13.6432C30.0987 13.5653 29.9132 13.5213 29.7243 13.5137C29.429 13.5016 29.1371 13.5791 28.8882 13.7355C28.6394 13.8919 28.4456 14.1197 28.3333 14.3879C28.2131 14.4242 27.9798 14.471 27.5885 14.4705C27.4507 14.4668 27.336 14.439 27.0835 14.2673C26.7109 14.0181 26.2159 13.4391 25.5829 12.8231C25.2604 12.5175 24.8894 12.1983 24.4136 11.9342C23.9423 11.6709 23.3427 11.474 22.6891 11.4768C21.9407 11.4733 21.2527 11.6796 20.7218 12.0018C19.918 12.4886 19.4793 13.1569 19.2263 13.6669C19.1533 13.8162 19.0882 13.9692 19.0314 14.1252C18.9005 14.1582 18.6801 14.1937 18.3401 14.1932C18.2024 14.1895 18.0876 14.1615 17.8351 13.9903C17.4628 13.7408 16.9676 13.1616 16.3345 12.546C16.0118 12.2398 15.641 11.921 15.1651 11.6567C14.6939 11.3934 14.0942 11.1967 13.4408 11.1993C12.6917 11.1947 12.0042 11.4012 11.4733 11.7232C10.6695 12.2098 10.2305 12.878 9.97753 13.3883C9.72503 13.9051 9.64485 14.2969 9.62801 14.3773C9.59194 14.5594 9.59277 14.7467 9.63047 14.9285C9.66817 15.1103 9.742 15.283 9.84774 15.4368C9.95347 15.5906 10.0891 15.7224 10.2467 15.8248C10.4044 15.9272 10.5811 15.9981 10.7667 16.0334ZM10.7665 22.201C11.141 22.2724 11.529 22.1951 11.8455 21.9861C12.1619 21.777 12.3809 21.4533 12.4542 21.086H12.4547C12.4715 21.0064 12.586 20.6896 12.753 20.4977C12.8356 20.3984 12.9198 20.3286 13.0139 20.28C13.1105 20.233 13.2221 20.1933 13.4408 20.1913C13.5599 20.1946 13.666 20.2174 13.9161 20.3891C14.2844 20.6392 14.7814 21.2229 15.4218 21.8418C15.7482 22.1491 16.1246 22.4685 16.6056 22.7317C17.079 22.992 17.6768 23.185 18.3268 23.185H18.3404C19.5729 23.1881 20.499 22.8901 21.1183 22.3316C21.6403 21.862 21.8025 21.3161 21.8428 21.0171C21.8862 20.9309 21.9394 20.8499 22.0014 20.7754C22.0844 20.6761 22.1686 20.6062 22.2632 20.5575C22.3593 20.5103 22.4709 20.4708 22.6895 20.469C22.8087 20.4721 22.915 20.4951 23.1649 20.6672C23.5332 20.9165 24.03 21.5004 24.6706 22.1193C24.9968 22.4266 25.3731 22.7467 25.8542 23.0096C26.3309 23.2719 26.9337 23.4654 27.5891 23.463H27.6084C28.8313 23.463 29.7507 23.1648 30.3673 22.6096C30.9888 22.0506 31.1018 21.3787 31.1042 21.1503C31.1198 20.7761 30.9833 20.411 30.7247 20.1355C30.466 19.86 30.1064 19.6966 29.725 19.6813C29.4297 19.6692 29.1379 19.7466 28.889 19.903C28.6402 20.0593 28.4464 20.287 28.334 20.5551C28.214 20.5914 27.9805 20.6381 27.5891 20.6377C27.4514 20.634 27.3366 20.6062 27.0841 20.4345C26.7116 20.185 26.2166 19.6065 25.5835 18.9904C25.2606 18.6845 24.8901 18.3654 24.4143 18.1016C23.943 17.8382 23.3429 17.6413 22.6898 17.6437C21.9413 17.6405 21.2534 17.8469 20.7225 18.169C19.9187 18.6558 19.4799 19.3238 19.227 19.8336C19.154 19.9829 19.089 20.1359 19.0323 20.2919C18.9014 20.325 18.681 20.3604 18.3408 20.3602C18.2035 20.3565 18.0885 20.3284 17.836 20.157C17.4635 19.9075 16.9682 19.3288 16.3352 18.7127C16.0123 18.4067 15.6417 18.0877 15.1662 17.8237C14.6946 17.5607 14.095 17.3636 13.4414 17.366C12.6928 17.363 12.0051 17.5692 11.4744 17.8913C10.6699 18.3776 10.2318 19.0458 9.97863 19.5561C9.72591 20.0729 9.64618 20.4647 9.6289 20.5453C9.59266 20.7273 9.59335 20.9146 9.63092 21.0963C9.66849 21.2781 9.74221 21.4508 9.84787 21.6045C9.95352 21.7583 10.089 21.8901 10.2467 21.9925C10.4043 22.0948 10.5809 22.1657 10.7665 22.201ZM29.7241 25.8489C29.4288 25.837 29.137 25.9145 28.8881 26.0709C28.6393 26.2273 28.4455 26.455 28.3331 26.7231C28.2131 26.7592 27.9798 26.8063 27.5883 26.8059C27.4509 26.8018 27.3358 26.7742 27.0837 26.6027C26.7111 26.353 26.2157 25.7743 25.5827 25.158C25.2602 24.852 24.8896 24.5332 24.4138 24.269C23.9425 24.0056 23.3425 23.8089 22.6893 23.8111C21.9405 23.8081 21.253 24.0145 20.7216 24.3366C19.9178 24.8231 19.4795 25.4914 19.2261 26.0012C19.1529 26.1507 19.0878 26.3039 19.031 26.4602C18.9001 26.493 18.6799 26.5284 18.3401 26.5282C18.2028 26.5238 18.0881 26.4964 17.8354 26.325C17.4628 26.0755 16.9678 25.4964 16.3345 24.8805C16.0118 24.5747 15.6413 24.2555 15.1655 23.991C14.6942 23.7279 14.0944 23.5308 13.4408 23.5336C12.6921 23.5303 12.0044 23.7366 11.4733 24.0588C10.6692 24.5454 10.2309 25.2134 9.97797 25.7237C9.72525 26.2402 9.64529 26.6323 9.62824 26.7127C9.55537 27.0804 9.63437 27.4615 9.84788 27.7721C10.0614 28.0827 10.3919 28.2973 10.7667 28.3688C11.1412 28.4402 11.5292 28.3629 11.8456 28.1539C12.162 27.9448 12.3809 27.6211 12.4542 27.2538L12.4551 27.254C12.4722 27.1742 12.5865 26.8576 12.753 26.6651C12.8359 26.5658 12.92 26.4962 13.0144 26.4473C13.111 26.4002 13.2221 26.3606 13.4408 26.3589C13.5597 26.3621 13.666 26.385 13.9159 26.5569C14.2846 26.8063 14.7817 27.3905 15.4218 28.0098C15.748 28.3169 16.1241 28.637 16.6054 28.9002C17.0823 29.1622 17.685 29.3559 18.3401 29.3535H18.3594C19.5825 29.3535 20.5023 29.0553 21.1185 28.4996C21.6406 28.0296 21.8027 27.4831 21.843 27.1845C21.8864 27.0983 21.9396 27.0173 22.0016 26.943C22.084 26.8437 22.1686 26.7737 22.2627 26.7251C22.3593 26.6779 22.4705 26.6384 22.6895 26.6366C22.8087 26.6399 22.9146 26.6627 23.1646 26.8344C23.533 27.0841 24.0298 27.6684 24.6703 28.2873C24.9966 28.5946 25.3729 28.9147 25.854 29.1777C26.3306 29.4402 26.9335 29.6334 27.5889 29.6312H27.6082C28.8313 29.6312 29.7516 29.333 30.3675 28.7772C30.9886 28.2182 31.102 27.5463 31.1044 27.3179C31.1196 26.9436 30.9828 26.5786 30.724 26.3032C30.4652 26.0277 30.1056 25.8643 29.7241 25.8489Z" fill="url(#paint0_linear_571_683025)"/>
<defs>
<linearGradient id="paint0_linear_571_683025" x1="9.34035" y1="11.0989" x2="28.6954" y2="20.2978" gradientUnits="userSpaceOnUse">
<stop stop-color="#288B58"/>
<stop offset="1" stop-color="#1522F1"/>
</linearGradient>
</defs>
</svg>
