<svg width="83" height="30" viewBox="0 0 83 30" fill="none" xmlns="http://www.w3.org/2000/svg">
<circle cx="14.6577" cy="14.6577" r="14.6577" fill="white"/>
<path d="M7.88907 11.7513C8.16349 11.8036 8.44785 11.7469 8.6797 11.5937C8.91154 11.4404 9.07189 11.2031 9.12552 10.934L9.12617 10.9341C9.13851 10.8758 9.22243 10.6438 9.34466 10.5028C9.40521 10.43 9.4669 10.3786 9.53605 10.3432C9.60698 10.3085 9.68831 10.2797 9.84869 10.2781C9.93618 10.2808 10.0136 10.2974 10.197 10.4233C10.4673 10.6065 10.8313 11.0345 11.3005 11.488C11.5397 11.7132 11.8151 11.9478 12.1679 12.1406C12.5172 12.3326 12.9591 12.4745 13.4394 12.4728H13.4533C14.3496 12.4728 15.0237 12.2543 15.4753 11.8472C15.8584 11.5027 15.9769 11.1021 16.0063 10.8832C16.0387 10.8207 16.0779 10.7575 16.1222 10.7064C16.183 10.6336 16.2447 10.5825 16.314 10.5466C16.3845 10.5121 16.4663 10.4834 16.6265 10.4818C16.7139 10.4845 16.7918 10.5009 16.9747 10.6271C17.245 10.8097 17.6091 11.238 18.0785 11.6916C18.3177 11.917 18.5934 12.1514 18.946 12.3441C19.2954 12.5365 19.7372 12.6781 20.2175 12.6765H20.2317C21.1279 12.6765 21.802 12.458 22.2536 12.0507C22.7091 11.6409 22.7919 11.1488 22.7937 10.9813C22.7994 10.8454 22.7778 10.7099 22.73 10.5822C22.6823 10.4546 22.6094 10.3375 22.5156 10.2375C22.4217 10.1375 22.3087 10.0567 22.183 9.99954C22.0573 9.94243 21.9213 9.91017 21.7829 9.90462C21.5664 9.89578 21.3525 9.95254 21.1701 10.0672C20.9877 10.1818 20.8457 10.3488 20.7634 10.5453C20.6753 10.5719 20.5044 10.6062 20.2175 10.6059C20.1166 10.6032 20.0325 10.5828 19.8474 10.457C19.5744 10.2743 19.2116 9.84999 18.7477 9.39847C18.5113 9.17454 18.2394 8.94058 17.8907 8.74707C17.5453 8.55404 17.1059 8.40974 16.6268 8.41181C16.0783 8.40926 15.5742 8.56041 15.1851 8.7966C14.596 9.15336 14.2744 9.6431 14.089 10.0169C14.0355 10.1264 13.9878 10.2385 13.9462 10.3528C13.8502 10.377 13.6887 10.403 13.4395 10.4026C13.3386 10.3999 13.2545 10.3794 13.0694 10.2539C12.7966 10.0711 12.4336 9.64661 11.9697 9.1954C11.7332 8.971 11.4614 8.73735 11.1126 8.54368C10.7673 8.35065 10.3277 8.20652 9.84885 8.20843C9.29986 8.20508 8.79599 8.35639 8.4069 8.59242C7.81781 8.94902 7.49607 9.43876 7.3107 9.81272C7.12564 10.1915 7.06688 10.4786 7.05454 10.5375C7.0281 10.671 7.02871 10.8083 7.05634 10.9415C7.08397 11.0747 7.13808 11.2013 7.21557 11.314C7.29307 11.4267 7.39243 11.5234 7.50799 11.5984C7.62355 11.6734 7.75304 11.7254 7.88907 11.7513ZM7.88891 16.2715C8.16336 16.3238 8.44777 16.2671 8.67968 16.1139C8.9116 15.9607 9.07206 15.7235 9.12584 15.4543H9.12617C9.13851 15.396 9.22243 15.1638 9.34482 15.0231C9.40537 14.9503 9.46706 14.8992 9.53605 14.8635C9.60682 14.8291 9.68863 14.8 9.84885 14.7986C9.93618 14.8009 10.0139 14.8177 10.1972 14.9435C10.4672 15.1268 10.8314 15.5546 11.3007 16.0082C11.54 16.2334 11.8158 16.4675 12.1684 16.6604C12.5152 16.8512 12.9534 16.9926 13.4298 16.9926H13.4397C14.3431 16.9948 15.0217 16.7765 15.4756 16.3672C15.8582 16.023 15.977 15.6229 16.0066 15.4038C16.0384 15.3406 16.0774 15.2812 16.1228 15.2267C16.1837 15.1539 16.2454 15.1026 16.3147 15.0669C16.3851 15.0324 16.467 15.0034 16.6272 15.0021C16.7145 15.0043 16.7924 15.0212 16.9755 15.1474C17.2455 15.33 17.6096 15.758 18.079 16.2116C18.3181 16.4368 18.5939 16.6714 18.9465 16.8641C19.2958 17.0563 19.7377 17.1981 20.218 17.1963H20.2321C21.1284 17.1963 21.8022 16.9778 22.2541 16.5709C22.7096 16.1612 22.7924 15.6688 22.7942 15.5014C22.8056 15.2271 22.7056 14.9596 22.516 14.7577C22.3265 14.5558 22.0629 14.436 21.7833 14.4248C21.567 14.4159 21.3531 14.4727 21.1707 14.5872C20.9883 14.7018 20.8463 14.8687 20.7639 15.0652C20.6759 15.0918 20.5049 15.126 20.218 15.1257C20.1171 15.123 20.033 15.1026 19.8479 14.9768C19.5749 14.7939 19.2121 14.37 18.7481 13.9185C18.5115 13.6942 18.2399 13.4604 17.8912 13.2671C17.5458 13.074 17.106 12.9297 16.6273 12.9315C16.0788 12.9291 15.5746 13.0804 15.1855 13.3164C14.5965 13.6732 14.2749 14.1628 14.0895 14.5364C14.036 14.6459 13.9884 14.758 13.9468 14.8723C13.8509 14.8965 13.6894 14.9225 13.44 14.9223C13.3394 14.9196 13.2551 14.8991 13.0701 14.7734C12.797 14.5906 12.4341 14.1664 11.9702 13.7149C11.7335 13.4907 11.4619 13.2569 11.1134 13.0634C10.7678 12.8706 10.3284 12.7262 9.84934 12.7279C9.30067 12.7257 8.79664 12.8769 8.40771 13.1129C7.81813 13.4693 7.49705 13.9591 7.31151 14.333C7.12629 14.7118 7.06785 14.9989 7.05519 15.058C7.02863 15.1914 7.02914 15.3286 7.05667 15.4618C7.08421 15.595 7.13824 15.7216 7.21567 15.8343C7.2931 15.947 7.39242 16.0436 7.50794 16.1186C7.62346 16.1936 7.75292 16.2456 7.88891 16.2715ZM21.7827 18.9449C21.5663 18.9362 21.3524 18.993 21.17 19.1076C20.9877 19.2222 20.8457 19.3891 20.7633 19.5856C20.6753 19.6121 20.5044 19.6466 20.2174 19.6463C20.1167 19.6433 20.0323 19.6231 19.8476 19.4974C19.5746 19.3144 19.2114 18.8903 18.7475 18.4386C18.5111 18.2144 18.2396 17.9807 17.8909 17.787C17.5455 17.594 17.1057 17.4499 16.627 17.4515C16.0782 17.4492 15.5743 17.6005 15.1849 17.8366C14.5958 18.1932 14.2746 18.6829 14.0889 19.0566C14.0352 19.1662 13.9875 19.2784 13.9458 19.3929C13.8499 19.417 13.6886 19.4429 13.4395 19.4428C13.3389 19.4396 13.2548 19.4195 13.0696 19.2939C12.7966 19.111 12.4338 18.6866 11.9697 18.2352C11.7332 18.0111 11.4616 17.7772 11.1129 17.5833C10.7675 17.3905 10.3279 17.246 9.84885 17.2481C9.30018 17.2457 8.79616 17.3968 8.4069 17.633C7.81765 17.9896 7.4964 18.4792 7.31102 18.8532C7.1258 19.2317 7.0672 19.5191 7.05471 19.578C7.0013 19.8475 7.0592 20.1268 7.21568 20.3544C7.37215 20.582 7.61438 20.7394 7.88907 20.7918C8.1635 20.8441 8.44789 20.7874 8.67978 20.6342C8.91167 20.481 9.0721 20.2437 9.12584 19.9746L9.12649 19.9747C9.13899 19.9163 9.22275 19.6842 9.34482 19.5431C9.40554 19.4703 9.46722 19.4194 9.53637 19.3835C9.60715 19.349 9.68863 19.32 9.84885 19.3187C9.93602 19.3211 10.0139 19.3378 10.197 19.4638C10.4673 19.6466 10.8316 20.0747 11.3007 20.5287C11.5398 20.7537 11.8155 20.9883 12.1682 21.1812C12.5177 21.3732 12.9594 21.5152 13.4395 21.5134H13.4537C14.35 21.5134 15.0242 21.2949 15.4758 20.8876C15.8584 20.5431 15.9772 20.1426 16.0068 19.9238C16.0385 19.8606 16.0775 19.8013 16.123 19.7468C16.1834 19.674 16.2454 19.6227 16.3144 19.5871C16.3851 19.5525 16.4666 19.5235 16.6272 19.5222C16.7145 19.5246 16.7921 19.5414 16.9754 19.6672C17.2453 19.8502 17.6094 20.2784 18.0789 20.732C18.318 20.9572 18.5938 21.1918 18.9463 21.3846C19.2957 21.5769 19.7375 21.7185 20.2179 21.7169H20.232C21.1284 21.7169 21.8028 21.4984 22.2543 21.091C22.7094 20.6814 22.7925 20.1889 22.7943 20.0216C22.8055 19.7472 22.7052 19.4797 22.5155 19.2779C22.3259 19.076 22.0623 18.9563 21.7827 18.9449Z" fill="url(#paint0_linear_103_35680)"/>
<path d="M38.9674 17.7227H42.1612V19.6047H36.5293V9.59562H38.9674V17.7227Z" fill="white"/>
<path d="M44.3364 10.8218C43.9087 10.8218 43.557 10.6982 43.2813 10.4511C43.0152 10.1945 42.8821 9.88078 42.8821 9.51008C42.8821 9.12986 43.0152 8.81619 43.2813 8.56905C43.557 8.3124 43.9087 8.18408 44.3364 8.18408C44.7547 8.18408 45.0969 8.3124 45.363 8.56905C45.6387 8.81619 45.7765 9.12986 45.7765 9.51008C45.7765 9.88078 45.6387 10.1945 45.363 10.4511C45.0969 10.6982 44.7547 10.8218 44.3364 10.8218ZM45.5484 11.6488V19.6047H43.1103V11.6488H45.5484Z" fill="white"/>
<path d="M46.6166 15.641C46.6166 14.8521 46.7782 14.1487 47.1014 13.5308C47.4341 12.913 47.8761 12.433 48.4274 12.0908C48.9882 11.7391 49.5965 11.5632 50.2524 11.5632C50.7562 11.5632 51.2077 11.6535 51.6069 11.8341C52.0061 12.0052 52.3293 12.2476 52.5764 12.5613V11.6488H55.0146V23.3974H52.5764V18.6067C52.3008 18.9394 51.9634 19.2055 51.5641 19.4051C51.1744 19.6047 50.7277 19.7045 50.2239 19.7045C49.5775 19.7045 48.9787 19.5334 48.4274 19.1913C47.8761 18.8491 47.4341 18.369 47.1014 17.7512C46.7782 17.1333 46.6166 16.43 46.6166 15.641ZM52.5764 15.6268C52.5764 15.199 52.4909 14.8426 52.3198 14.5574C52.1582 14.2627 51.9443 14.0441 51.6782 13.9015C51.412 13.7495 51.1316 13.6734 50.837 13.6734C50.5518 13.6734 50.2762 13.7495 50.01 13.9015C49.7439 14.0441 49.5252 14.2627 49.3541 14.5574C49.183 14.8521 49.0975 15.2133 49.0975 15.641C49.0975 16.0688 49.183 16.43 49.3541 16.7246C49.5252 17.0098 49.7439 17.2284 50.01 17.3805C50.2762 17.5231 50.5518 17.5944 50.837 17.5944C51.1221 17.5944 51.3978 17.5231 51.6639 17.3805C51.9396 17.2284 52.1582 17.005 52.3198 16.7104C52.4909 16.4157 52.5764 16.0545 52.5764 15.6268Z" fill="white"/>
<path d="M64.4207 11.6488V19.6047H61.9826V18.5211C61.7355 18.8728 61.398 19.158 60.9703 19.3766C60.552 19.5857 60.0863 19.6903 59.573 19.6903C58.9647 19.6903 58.4276 19.5572 57.9618 19.2911C57.4961 19.0154 57.1349 18.6209 56.8782 18.1076C56.6216 17.5944 56.4933 16.9908 56.4933 16.2969V11.6488H58.9171V15.9689C58.9171 16.5012 59.055 16.9147 59.3306 17.2094C59.6063 17.5041 59.977 17.6514 60.4427 17.6514C60.918 17.6514 61.2935 17.5041 61.5691 17.2094C61.8448 16.9147 61.9826 16.5012 61.9826 15.9689V11.6488H64.4207Z" fill="white"/>
<path d="M67.1843 10.8218C66.7566 10.8218 66.4049 10.6982 66.1292 10.4511C65.8631 10.1945 65.73 9.88078 65.73 9.51008C65.73 9.12986 65.8631 8.81619 66.1292 8.56905C66.4049 8.3124 66.7566 8.18408 67.1843 8.18408C67.6025 8.18408 67.9447 8.3124 68.2109 8.56905C68.4865 8.81619 68.6244 9.12986 68.6244 9.51008C68.6244 9.88078 68.4865 10.1945 68.2109 10.4511C67.9447 10.6982 67.6025 10.8218 67.1843 10.8218ZM68.3962 11.6488V19.6047H65.9581V11.6488H68.3962Z" fill="white"/>
<path d="M73.9415 13.6734H72.6297V19.6047H70.1916V13.6734H69.3076V11.6488H70.1916V11.4206C70.1916 10.4416 70.472 9.70018 71.0329 9.1964C71.5937 8.68311 72.4159 8.42647 73.4995 8.42647C73.6801 8.42647 73.8132 8.43122 73.8987 8.44073V10.5081C73.433 10.4796 73.105 10.5462 72.9149 10.7077C72.7248 10.8693 72.6297 11.1592 72.6297 11.5775V11.6488H73.9415V13.6734Z" fill="white"/>
<path d="M83.0003 11.6488L78.01 23.3831H75.3866L77.2116 19.3338L73.975 11.6488H76.6983L78.5376 16.6248L80.3626 11.6488H83.0003Z" fill="white"/>
<defs>
<linearGradient id="paint0_linear_103_35680" x1="6.84372" y1="8.13485" x2="21.0288" y2="14.8766" gradientUnits="userSpaceOnUse">
<stop stop-color="#288B58"/>
<stop offset="1" stop-color="#1522F1"/>
</linearGradient>
</defs>
</svg>
