<svg width="159" height="42" viewBox="0 0 159 42" fill="none" xmlns="http://www.w3.org/2000/svg">
<path d="M2.57748 11.0155C3.40579 11.1782 4.26413 11.0019 4.96393 10.5254C5.66372 10.0489 6.14773 9.31114 6.30962 8.47421L6.31158 8.4747C6.34881 8.29346 6.60213 7.57198 6.97108 7.13375C7.15384 6.90745 7.34003 6.74751 7.54876 6.63758C7.76288 6.52963 8.00836 6.44 8.49245 6.43505C8.75655 6.44347 8.99027 6.49497 9.54394 6.88665C10.3597 7.45611 11.4583 8.78666 12.8748 10.1969C13.5965 10.8971 14.428 11.6265 15.4927 12.2257C16.5472 12.8229 17.8809 13.2641 19.3307 13.2586H19.3728C22.078 13.2586 24.1129 12.5793 25.476 11.3136C26.6323 10.2425 26.99 8.99712 27.0787 8.31624C27.1767 8.12213 27.2947 7.92554 27.4285 7.76659C27.6123 7.54029 27.7984 7.38134 28.0077 7.26992C28.2203 7.16247 28.4673 7.07334 28.9509 7.06839C29.2145 7.0768 29.4497 7.12781 30.0019 7.51999C30.8177 8.08796 31.9167 9.41951 33.3337 10.8298C34.0554 11.5305 34.8879 12.2594 35.9521 12.8585C37.0065 13.4567 38.3403 13.8969 39.7901 13.892H39.8327C42.5379 13.892 44.5727 13.2126 45.9358 11.9464C47.3107 10.6723 47.5606 9.1422 47.566 8.62127C47.5832 8.199 47.5179 7.77743 47.3739 7.38066C47.2299 6.98388 47.0099 6.61966 46.7266 6.30881C46.4432 5.99796 46.1021 5.74657 45.7226 5.56899C45.3431 5.39141 44.9328 5.29112 44.5149 5.27385C43.8617 5.24637 43.2159 5.42284 42.6654 5.77925C42.1149 6.13567 41.6863 6.65476 41.4379 7.26596C41.1718 7.34866 40.6559 7.45512 39.7901 7.45413C39.4853 7.44571 39.2315 7.38233 38.6729 6.99114C37.8488 6.42317 36.7537 5.104 35.3534 3.70016C34.64 3.00394 33.8193 2.27652 32.7668 1.67487C31.7241 1.07471 30.3978 0.626078 28.9518 0.632515C27.2962 0.624593 25.7744 1.09452 24.5999 1.82887C22.8218 2.93808 21.8511 4.46076 21.2916 5.62295C21.13 5.96325 20.9861 6.31184 20.8604 6.66729C20.5708 6.74256 20.0833 6.82327 19.3312 6.82228C19.0264 6.81386 18.7726 6.74998 18.214 6.35978C17.3904 5.79131 16.2948 4.47165 14.8945 3.06881C14.1806 2.3711 13.3604 1.64467 12.3074 1.04253C11.2652 0.442366 9.93837 -0.00577323 8.49294 0.000168949C6.83585 -0.0102299 5.31497 0.460192 4.1405 1.19405C2.36238 2.30276 1.39125 3.82544 0.831698 4.98813C0.273126 6.16567 0.0957555 7.05848 0.0585174 7.2417C-0.0212941 7.65665 -0.0194476 8.08342 0.0639513 8.49764C0.14735 8.91187 0.310668 9.30543 0.544579 9.65587C0.77849 10.0063 1.07841 10.3067 1.42722 10.54C1.77603 10.7733 2.16689 10.9349 2.57748 11.0155ZM2.57699 25.0692C3.40541 25.2319 4.26387 25.0558 4.96389 24.5794C5.6639 24.103 6.14825 23.3654 6.3106 22.5284H6.31158C6.34881 22.3472 6.60213 21.6252 6.97157 21.188C7.15433 20.9617 7.34052 20.8027 7.54876 20.6918C7.76239 20.5849 8.00934 20.4942 8.49294 20.4898C8.75655 20.4972 8.99125 20.5492 9.54443 20.9404C10.3593 21.5103 11.4588 22.8404 12.8753 24.2507C13.5975 24.9509 14.43 25.6788 15.4942 26.2784C16.5413 26.8717 17.8637 27.3114 19.3018 27.3114H19.3317C22.0584 27.3183 24.107 26.6394 25.4769 25.3668C26.6318 24.2967 26.9905 23.0528 27.0797 22.3715C27.1757 22.1751 27.2933 21.9904 27.4305 21.8208C27.6142 21.5945 27.8004 21.4351 28.0096 21.3242C28.2223 21.2167 28.4692 21.1266 28.9528 21.1226C29.2164 21.1296 29.4516 21.182 30.0043 21.5742C30.8191 22.1422 31.9182 23.4727 33.3352 24.883C34.0569 25.5832 34.8894 26.3126 35.9536 26.9118C37.008 27.5095 38.3417 27.9502 39.7916 27.9447H39.8342C42.5393 27.9447 44.5732 27.2653 45.9373 26.0002C47.3122 24.7265 47.5621 23.1954 47.5675 22.675C47.6021 21.8222 47.3001 20.9905 46.7279 20.3627C46.1557 19.7349 45.3602 19.3626 44.5164 19.3276C43.8633 19.3002 43.2177 19.4766 42.6672 19.8328C42.1167 20.189 41.688 20.7078 41.4393 21.3187C41.1738 21.4014 40.6573 21.5079 39.7916 21.5069C39.4868 21.4985 39.233 21.4351 38.6744 21.0439C37.8503 20.4754 36.7552 19.1572 35.3548 17.7534C34.6405 17.0562 33.8207 16.3293 32.7683 15.7281C31.7256 15.128 30.3982 14.6793 28.9533 14.6848C27.2977 14.6773 25.7758 15.1478 24.6014 15.8816C22.8232 16.9908 21.8526 18.513 21.293 19.6747C21.1316 20.015 20.9878 20.3636 20.8624 20.719C20.5728 20.7943 20.0853 20.875 19.3327 20.8745C19.0289 20.8661 18.7746 20.8022 18.216 20.4115C17.3919 19.8431 16.2963 18.5244 14.8959 17.1206C14.1816 16.4233 13.3618 15.6964 12.3098 15.0948C11.2667 14.4956 9.94033 14.0465 8.49441 14.0519C6.8383 14.045 5.31693 14.5149 4.14295 15.2488C2.36336 16.357 1.39419 17.8797 0.834148 19.0424C0.275086 20.2199 0.0986953 21.1127 0.0604773 21.2964C-0.0196876 21.7112 -0.0181686 22.1378 0.0649474 22.552C0.148063 22.9661 0.311146 23.3596 0.544868 23.71C0.778591 24.0604 1.07837 24.3608 1.42706 24.594C1.77575 24.8273 2.1665 24.9887 2.57699 25.0692ZM44.5144 33.3813C43.8613 33.3542 43.2156 33.5308 42.6652 33.8872C42.1147 34.2436 41.6861 34.7624 41.4374 35.3734C41.1718 35.4556 40.6559 35.5631 39.7896 35.5621C39.4858 35.5527 39.231 35.4898 38.6734 35.0991C37.8493 34.5301 36.7532 33.2115 35.3529 31.8071C34.6395 31.1099 33.8197 30.3835 32.7673 29.7814C31.7246 29.1812 30.3973 28.7331 28.9523 28.738C27.2957 28.7311 25.7748 29.2015 24.5994 29.9354C22.8213 31.0441 21.8516 32.5668 21.2911 33.7284C21.1292 34.0692 20.9851 34.4183 20.8594 34.7743C20.5698 34.849 20.0828 34.9298 19.3312 34.9293C19.0274 34.9194 18.7736 34.857 18.2145 34.4663C17.3904 33.8978 16.2953 32.5781 14.8945 31.1748C14.1806 30.4781 13.3608 29.7507 12.3084 29.148C11.2657 28.5484 9.93886 28.0992 8.49294 28.1057C6.83683 28.0982 5.31546 28.5682 4.1405 29.3025C2.36189 30.4112 1.39223 31.9334 0.832678 33.0961C0.273616 34.2731 0.0967354 35.1665 0.0590074 35.3497C-0.102191 36.1876 0.0725863 37.056 0.544891 37.7637C1.01719 38.4714 1.74834 38.9605 2.57748 39.1235C3.40584 39.2862 4.26424 39.11 4.96418 38.6336C5.66412 38.1572 6.14837 37.4196 6.3106 36.5827L6.31256 36.5832C6.35028 36.4014 6.60311 35.68 6.97157 35.2412C7.15482 35.0149 7.34101 34.8565 7.54974 34.7451C7.76337 34.6376 8.00934 34.5475 8.49294 34.5435C8.75606 34.5509 8.99125 34.6029 9.54394 34.9946C10.3597 35.5631 11.4593 36.8941 12.8753 38.3054C13.597 39.0051 14.429 39.7345 15.4937 40.3342C16.5486 40.9314 17.8818 41.3726 19.3312 41.3671H19.3738C22.0795 41.3671 24.1143 40.6877 25.4774 39.4215C26.6323 38.3505 26.991 37.1051 27.0801 36.4247C27.176 36.2285 27.2937 36.0439 27.431 35.8746C27.6132 35.6483 27.8004 35.4888 28.0086 35.3779C28.2223 35.2704 28.4682 35.1803 28.9528 35.1764C29.2164 35.1838 29.4506 35.2358 30.0038 35.627C30.8186 36.1959 31.9177 37.5275 33.3347 38.9378C34.0564 39.6379 34.8889 40.3673 35.9531 40.9665C37.0075 41.5647 38.3412 42.0049 39.7911 42H39.8337C42.5393 42 44.5752 41.3206 45.9378 40.0539C47.3117 38.7803 47.5626 37.2492 47.5679 36.7288C47.6016 35.8758 47.299 35.0442 46.7265 34.4166C46.154 33.7889 45.3584 33.4166 44.5144 33.3813Z" fill="url(#paint0_linear_905_21984)"/>
<path d="M57.7106 29.2796C57.512 29.2796 57.3418 29.2007 57.1999 29.043C57.0438 28.8997 56.9658 28.7276 56.9658 28.5269V8.95699C56.9658 8.74194 57.0438 8.56272 57.1999 8.41936C57.3418 8.27599 57.512 8.2043 57.7106 8.2043H61.8813C62.1083 8.2043 62.2856 8.27599 62.4133 8.41936C62.5552 8.56272 62.6261 8.74194 62.6261 8.95699V24.5484H71.5634C71.7904 24.5484 71.9748 24.6272 72.1167 24.785C72.2727 24.9283 72.3507 25.1147 72.3507 25.3441V28.5269C72.3507 28.7419 72.2727 28.9212 72.1167 29.0645C71.9748 29.2079 71.7904 29.2796 71.5634 29.2796H57.7106ZM75.266 11.4516C75.039 11.4516 74.8617 11.3799 74.734 11.2366C74.5921 11.0789 74.5212 10.8925 74.5212 10.6774V7.88172C74.5212 7.65233 74.5921 7.46595 74.734 7.32258C74.8901 7.16487 75.0674 7.08602 75.266 7.08602H78.9899C79.2027 7.08602 79.3871 7.16487 79.5431 7.32258C79.685 7.46595 79.7559 7.65233 79.7559 7.88172V10.6774C79.7559 10.8925 79.685 11.0789 79.5431 11.2366C79.3871 11.3799 79.2027 11.4516 78.9899 11.4516H75.266ZM75.266 29.2796C75.0674 29.2796 74.8901 29.2007 74.734 29.043C74.5921 28.8997 74.5212 28.7276 74.5212 28.5269V14.3763C74.5212 14.1613 74.5921 13.9821 74.734 13.8387C74.8901 13.6953 75.0674 13.6237 75.266 13.6237H78.9899C79.2027 13.6237 79.3871 13.6953 79.5431 13.8387C79.685 13.9821 79.7559 14.1613 79.7559 14.3763V28.5269C79.7559 28.7419 79.685 28.9212 79.5431 29.0645C79.3871 29.2079 79.2027 29.2796 78.9899 29.2796H75.266ZM94.0556 35C93.8428 35 93.6584 34.9283 93.5023 34.785C93.3605 34.6416 93.2895 34.4624 93.2895 34.2473V27.6022C92.3391 28.9212 90.9062 29.5807 88.9911 29.5807C87.0618 29.5807 85.5439 28.957 84.4374 27.7097C83.3308 26.4624 82.735 24.7563 82.6499 22.5914L82.6286 21.4516L82.6499 20.3333C82.735 18.0824 83.3237 16.3548 84.4161 15.1505C85.5226 13.9319 87.0476 13.3226 88.9911 13.3226C90.0267 13.3226 90.9275 13.5161 91.6936 13.9032C92.4596 14.276 93.0909 14.7921 93.5874 15.4516V14.3763C93.5874 14.1613 93.6584 13.9821 93.8002 13.8387C93.9563 13.6953 94.1407 13.6237 94.3535 13.6237H97.9071C98.1199 13.6237 98.2972 13.6953 98.4391 13.8387C98.581 13.9821 98.6519 14.1613 98.6519 14.3763V34.2473C98.6519 34.4624 98.581 34.6416 98.4391 34.785C98.2972 34.9283 98.1199 35 97.9071 35H94.0556ZM90.6935 25.3871C91.5304 25.3871 92.1617 25.1362 92.5873 24.6344C93.0129 24.1183 93.247 23.466 93.2895 22.6774C93.3321 22.1613 93.3534 21.7957 93.3534 21.5807C93.3534 21.3369 93.3321 20.9498 93.2895 20.4194C93.247 19.5591 93.02 18.8566 92.6086 18.3118C92.2114 17.7814 91.573 17.5161 90.6935 17.5161C89.7997 17.5161 89.1614 17.7814 88.7783 18.3118C88.4095 18.8423 88.1967 19.5807 88.1399 20.5269C88.1116 20.7276 88.0974 21.0358 88.0974 21.4516C88.0974 21.8674 88.1116 22.1756 88.1399 22.3764C88.1967 23.3226 88.4095 24.0609 88.7783 24.5914C89.1614 25.1219 89.7997 25.3871 90.6935 25.3871ZM107.738 29.5807C105.993 29.5807 104.582 28.9857 103.504 27.7957C102.425 26.6201 101.886 24.9498 101.886 22.785V14.3763C101.886 14.1613 101.964 13.9821 102.12 13.8387C102.262 13.6953 102.433 13.6237 102.631 13.6237H106.61C106.823 13.6237 107.008 13.6953 107.164 13.8387C107.305 13.9821 107.376 14.1613 107.376 14.3763V22.5914C107.376 24.4552 108.199 25.3871 109.845 25.3871C110.639 25.3871 111.263 25.1434 111.717 24.6559C112.157 24.1685 112.377 23.4803 112.377 22.5914V14.3763C112.377 14.1613 112.455 13.9821 112.611 13.8387C112.753 13.6953 112.937 13.6237 113.164 13.6237H117.08C117.307 13.6237 117.491 13.6953 117.633 13.8387C117.761 13.9821 117.825 14.1613 117.825 14.3763V28.5269C117.825 28.7276 117.761 28.8997 117.633 29.043C117.491 29.2007 117.307 29.2796 117.08 29.2796H113.462C113.235 29.2796 113.051 29.2079 112.909 29.0645C112.753 28.9212 112.675 28.7419 112.675 28.5269V27.3871C111.639 28.8495 109.994 29.5807 107.738 29.5807ZM121.974 11.4516C121.761 11.4516 121.584 11.3799 121.442 11.2366C121.3 11.0789 121.229 10.8925 121.229 10.6774V7.88172C121.229 7.65233 121.3 7.46595 121.442 7.32258C121.598 7.16487 121.775 7.08602 121.974 7.08602H125.698C125.911 7.08602 126.095 7.16487 126.251 7.32258C126.393 7.46595 126.464 7.65233 126.464 7.88172V10.6774C126.464 10.8925 126.393 11.0789 126.251 11.2366C126.095 11.3799 125.911 11.4516 125.698 11.4516H121.974ZM121.974 29.2796C121.775 29.2796 121.598 29.2007 121.442 29.043C121.3 28.8997 121.229 28.7276 121.229 28.5269V14.3763C121.229 14.1613 121.3 13.9821 121.442 13.8387C121.598 13.6953 121.775 13.6237 121.974 13.6237H125.698C125.911 13.6237 126.095 13.6953 126.251 13.8387C126.393 13.9821 126.464 14.1613 126.464 14.3763V28.5269C126.464 28.7419 126.393 28.9212 126.251 29.0645C126.095 29.2079 125.911 29.2796 125.698 29.2796H121.974ZM132.422 29.2796C132.209 29.2796 132.032 29.2079 131.89 29.0645C131.734 28.9212 131.656 28.7419 131.656 28.5269V17.7097H129.422C129.209 17.7097 129.025 17.6452 128.868 17.5161C128.727 17.3728 128.656 17.1864 128.656 16.957V14.3763C128.656 14.1613 128.727 13.9821 128.868 13.8387C129.025 13.6953 129.209 13.6237 129.422 13.6237H131.656V12.7204C131.656 10.7133 132.231 9.25806 133.38 8.35484C134.529 7.45161 136.181 7 138.338 7H140.678C140.905 7 141.09 7.07168 141.232 7.21505C141.388 7.35842 141.466 7.53763 141.466 7.75269V10.3333C141.466 10.5627 141.388 10.7491 141.232 10.8925C141.09 11.0215 140.905 11.086 140.678 11.086H138.572C137.933 11.086 137.479 11.2366 137.21 11.5376C136.94 11.8244 136.806 12.2688 136.806 12.871V13.6237H140.381C140.608 13.6237 140.792 13.6953 140.934 13.8387C141.09 13.9821 141.168 14.1613 141.168 14.3763V16.957C141.168 17.1864 141.09 17.3728 140.934 17.5161C140.792 17.6452 140.608 17.7097 140.381 17.7097H136.806V28.5269C136.806 28.7276 136.735 28.8997 136.593 29.043C136.465 29.2007 136.288 29.2796 136.061 29.2796H132.422ZM146.126 35C145.956 35 145.807 34.9427 145.679 34.828C145.566 34.6989 145.509 34.5484 145.509 34.3764C145.509 34.233 145.53 34.0968 145.573 33.9678L147.913 28.3118L142.211 14.6559C142.14 14.4839 142.104 14.3692 142.104 14.3118C142.147 14.1111 142.232 13.9462 142.36 13.8172C142.487 13.6882 142.643 13.6237 142.828 13.6237H146.381C146.793 13.6237 147.076 13.8315 147.232 14.2473L150.552 22.8065L153.935 14.2473C154.134 13.8315 154.432 13.6237 154.829 13.6237H158.34C158.525 13.6237 158.681 13.6882 158.808 13.8172C158.936 13.9462 159 14.0896 159 14.2473C159 14.3907 158.979 14.5269 158.936 14.6559L150.509 34.3764C150.311 34.7921 150.006 35 149.594 35H146.126Z" fill="white"/>
<defs>
<linearGradient id="paint0_linear_905_21984" x1="-0.577851" y1="-0.228583" x2="42.6973" y2="19.7388" gradientUnits="userSpaceOnUse">
<stop stop-color="#288B58"/>
<stop offset="1" stop-color="#1522F1"/>
</linearGradient>
</defs>
</svg>
