<svg width="40" height="40" viewBox="0 0 40 40" fill="none" xmlns="http://www.w3.org/2000/svg">
<circle cx="20" cy="20" r="20" fill="#1F1F43"/>
<path d="M10.7647 16.0342C11.1392 16.1056 11.5272 16.0283 11.8435 15.8192C12.1599 15.61 12.3787 15.2863 12.4518 14.919L12.4527 14.9192C12.4696 14.8397 12.5841 14.523 12.7509 14.3307C12.8335 14.2314 12.9176 14.1612 13.012 14.113C13.1088 14.0656 13.2197 14.0263 13.4386 14.0241C13.558 14.0278 13.6636 14.0504 13.9139 14.2223C14.2827 14.4722 14.7793 15.0561 15.4196 15.675C15.7458 15.9823 16.1217 16.3024 16.603 16.5653C17.0797 16.8274 17.6826 17.0211 18.338 17.0187H18.357C19.5799 17.0187 20.4997 16.7205 21.1159 16.1651C21.6386 15.695 21.8003 15.1485 21.8404 14.8497C21.8847 14.7645 21.9381 14.6782 21.9985 14.6084C22.0816 14.5091 22.1658 14.4394 22.2603 14.3905C22.3565 14.3433 22.4681 14.3042 22.6867 14.302C22.8059 14.3057 22.9122 14.3281 23.1618 14.5002C23.5306 14.7495 24.0274 15.3338 24.6679 15.9527C24.9942 16.2602 25.3705 16.5801 25.8516 16.8431C26.3282 17.1056 26.9311 17.2988 27.5865 17.2966H27.6058C28.8286 17.2966 29.7485 16.9985 30.3647 16.4428C30.9862 15.8836 31.0991 15.2121 31.1016 14.9835C31.1094 14.7982 31.0799 14.6132 31.0147 14.4391C30.9496 14.2649 30.8502 14.1051 30.7221 13.9687C30.594 13.8323 30.4398 13.7219 30.2683 13.644C30.0967 13.5661 29.9112 13.5221 29.7224 13.5145C29.4271 13.5024 29.1351 13.5799 28.8863 13.7363C28.6374 13.8927 28.4437 14.1205 28.3314 14.3887C28.2111 14.425 27.9779 14.4717 27.5865 14.4713C27.4488 14.4676 27.334 14.4398 27.0815 14.2681C26.709 14.0189 26.2139 13.4399 25.5809 12.8239C25.2584 12.5183 24.8874 12.1991 24.4117 11.935C23.9403 11.6717 23.3408 11.4748 22.6871 11.4776C21.9387 11.4741 21.2508 11.6803 20.7199 12.0026C19.9161 12.4894 19.4773 13.1576 19.2244 13.6677C19.1513 13.817 19.0863 13.97 19.0294 14.126C18.8985 14.159 18.6782 14.1945 18.3382 14.194C18.2004 14.1903 18.0857 14.1623 17.8332 13.991C17.4609 13.7416 16.9656 13.1624 16.3326 12.5468C16.0099 12.2406 15.6391 11.9218 15.1631 11.6575C14.692 11.3941 14.0922 11.1975 13.4388 11.2001C12.6897 11.1955 12.0022 11.402 11.4713 11.724C10.6675 12.2106 10.2285 12.8788 9.97557 13.3891C9.72307 13.9059 9.6429 14.2977 9.62606 14.3781C9.58998 14.5602 9.59082 14.7475 9.62852 14.9293C9.66622 15.111 9.74005 15.2838 9.84578 15.4376C9.95152 15.5913 10.0871 15.7232 10.2448 15.8256C10.4025 15.928 10.5791 15.9989 10.7647 16.0342ZM10.7645 22.2018C11.139 22.2732 11.5271 22.1959 11.8435 21.9869C12.1599 21.7778 12.3789 21.4541 12.4523 21.0868H12.4527C12.4696 21.0072 12.5841 20.6904 12.7511 20.4985C12.8337 20.3992 12.9179 20.3294 13.012 20.2808C13.1086 20.2338 13.2202 20.1941 13.4388 20.1921C13.558 20.1954 13.6641 20.2182 13.9141 20.3899C14.2825 20.64 14.7795 21.2237 15.4198 21.8426C15.7463 22.1499 16.1226 22.4693 16.6037 22.7325C17.077 22.9928 17.6748 23.1858 18.3249 23.1858H18.3384C19.571 23.1889 20.497 22.8909 21.1163 22.3324C21.6384 21.8628 21.8005 21.3169 21.8408 21.0179C21.8842 20.9317 21.9374 20.8507 21.9994 20.7762C22.0825 20.6769 22.1666 20.6069 22.2612 20.5583C22.3573 20.5111 22.469 20.4716 22.6876 20.4698C22.8068 20.4729 22.9131 20.4959 23.1629 20.668C23.5312 20.9173 24.0281 21.5012 24.6686 22.1201C24.9949 22.4274 25.3712 22.7475 25.8522 23.0104C26.3289 23.2727 26.9318 23.4661 27.5872 23.4638H27.6065C28.8293 23.4638 29.7487 23.1656 30.3653 22.6104C30.9868 22.0514 31.0998 21.3795 31.1022 21.1511C31.1179 20.7769 30.9814 20.4118 30.7227 20.1363C30.4641 19.8608 30.1045 19.6974 29.723 19.6821C29.4278 19.67 29.1359 19.7474 28.8871 19.9038C28.6383 20.0601 28.4445 20.2878 28.3321 20.5559C28.212 20.5922 27.9786 20.6389 27.5872 20.6385C27.4494 20.6348 27.3347 20.6069 27.0822 20.4353C26.7096 20.1858 26.2146 19.6073 25.5816 18.9912C25.2587 18.6852 24.8881 18.3662 24.4123 18.1024C23.941 17.839 23.341 17.6421 22.6878 17.6445C21.9394 17.6413 21.2514 17.8477 20.7205 18.1698C19.9167 18.6566 19.478 19.3246 19.225 19.8344C19.152 19.9837 19.0871 20.1367 19.0303 20.2927C18.8994 20.3257 18.6791 20.3612 18.3388 20.361C18.2015 20.3573 18.0866 20.3292 17.8341 20.1578C17.4615 19.9083 16.9663 19.3296 16.3332 18.7135C16.0103 18.4075 15.6398 18.0885 15.1642 17.8245C14.6927 17.5615 14.0931 17.3644 13.4395 17.3668C12.6908 17.3638 12.0031 17.57 11.4724 17.892C10.668 18.3784 10.2298 19.0466 9.97668 19.5569C9.72396 20.0737 9.64422 20.4655 9.62695 20.5461C9.59071 20.7281 9.5914 20.9153 9.62897 21.0971C9.66654 21.2789 9.74026 21.4516 9.84591 21.6053C9.95157 21.7591 10.0871 21.8909 10.2447 21.9933C10.4023 22.0956 10.579 22.1665 10.7645 22.2018ZM29.7221 25.8496C29.4269 25.8377 29.135 25.9153 28.8862 26.0716C28.6374 26.228 28.4436 26.4558 28.3312 26.7239C28.2111 26.76 27.9779 26.8071 27.5863 26.8067C27.449 26.8026 27.3338 26.775 27.0817 26.6035C26.7092 26.3538 26.2137 25.7751 25.5807 25.1588C25.2582 24.8528 24.8877 24.534 24.4119 24.2698C23.9406 24.0064 23.3405 23.8097 22.6874 23.8119C21.9385 23.8089 21.251 24.0153 20.7196 24.3374C19.9159 24.8239 19.4775 25.4922 19.2241 26.002C19.151 26.1515 19.0858 26.3047 19.029 26.4609C18.8981 26.4938 18.6779 26.5292 18.3382 26.529C18.2009 26.5246 18.0861 26.4972 17.8334 26.3258C17.4609 26.0763 16.9658 25.4972 16.3326 24.8813C16.0099 24.5755 15.6393 24.2563 15.1636 23.9918C14.6922 23.7287 14.0924 23.5316 13.4388 23.5344C12.6902 23.5311 12.0024 23.7374 11.4713 24.0596C10.6673 24.5462 10.229 25.2142 9.97602 25.7245C9.7233 26.241 9.64334 26.6331 9.62628 26.7135C9.55341 27.0812 9.63242 27.4623 9.84592 27.7729C10.0594 28.0835 10.3899 28.2981 10.7647 28.3696C11.1392 28.441 11.5272 28.3637 11.8436 28.1547C12.16 27.9456 12.3789 27.6219 12.4523 27.2546L12.4532 27.2548C12.4702 27.175 12.5845 26.8584 12.7511 26.6659C12.8339 26.5666 12.9181 26.497 13.0124 26.4481C13.109 26.401 13.2202 26.3614 13.4388 26.3597C13.5577 26.3629 13.6641 26.3858 13.9139 26.5577C14.2827 26.8071 14.7797 27.3913 15.4198 28.0106C15.7461 28.3177 16.1222 28.6378 16.6035 28.901C17.0803 29.163 17.683 29.3567 18.3382 29.3543H18.3574C19.5805 29.3543 20.5004 29.0561 21.1166 28.5004C21.6386 28.0304 21.8007 27.4838 21.8411 27.1853C21.8844 27.0991 21.9376 27.0181 21.9996 26.9438C22.082 26.8445 22.1666 26.7745 22.2608 26.7259C22.3573 26.6787 22.4685 26.6391 22.6876 26.6374C22.8068 26.6407 22.9126 26.6635 23.1627 26.8352C23.531 27.0849 24.0278 27.6692 24.6684 28.2881C24.9946 28.5954 25.3709 28.9155 25.852 29.1785C26.3287 29.441 26.9316 29.6342 27.587 29.632H27.6062C28.8293 29.632 29.7496 29.3338 30.3656 28.778C30.9866 28.219 31.1 27.5471 31.1025 27.3187C31.1177 26.9444 30.9809 26.5794 30.7221 26.304C30.4633 26.0285 30.1036 25.8651 29.7221 25.8496Z" fill="white"/>
</svg>
