<svg width="50" height="50" viewBox="0 0 50 50" fill="none" xmlns="http://www.w3.org/2000/svg">
<circle cx="25" cy="25" r="25" fill="#176BF8"/>
<path d="M28.3334 11.3333C28.3334 13.1743 26.841 14.6667 25.0001 14.6667C23.1592 14.6667 21.6667 13.1743 21.6667 11.3333C21.6667 9.49238 23.1592 8 25.0001 8C26.841 8 28.3334 9.49238 28.3334 11.3333Z" fill="#176BF8" stroke="white" stroke-width="1.5" stroke-linecap="round" stroke-linejoin="round"/>
<path d="M39.9999 18C39.9999 19.8409 38.5075 21.3334 36.6666 21.3334C34.8257 21.3334 33.3333 19.8409 33.3333 18C33.3333 16.1591 34.8257 14.6667 36.6666 14.6667C38.5075 14.6667 39.9999 16.1591 39.9999 18Z" fill="#176BF8" stroke="white" stroke-width="1.5" stroke-linecap="round" stroke-linejoin="round"/>
<path d="M39.9999 31.3333C39.9999 33.1742 38.5075 34.6667 36.6666 34.6667C34.8257 34.6667 33.3333 33.1742 33.3333 31.3333C33.3333 29.4924 34.8257 28 36.6666 28C38.5075 28 39.9999 29.4924 39.9999 31.3333Z" fill="#176BF8" stroke="white" stroke-width="1.5" stroke-linecap="round" stroke-linejoin="round"/>
<path d="M28.3334 38C28.3334 39.8409 26.841 41.3334 25.0001 41.3334C23.1592 41.3334 21.6667 39.8409 21.6667 38C21.6667 36.1591 23.1592 34.6667 25.0001 34.6667C26.841 34.6667 28.3334 36.1591 28.3334 38Z" fill="#176BF8" stroke="white" stroke-width="1.5" stroke-linecap="round" stroke-linejoin="round"/>
<path d="M16.6667 31.3333C16.6667 33.1742 15.1743 34.6667 13.3333 34.6667C11.4924 34.6667 10 33.1742 10 31.3333C10 29.4924 11.4924 28 13.3333 28C15.1743 28 16.6667 29.4924 16.6667 31.3333Z" fill="#176BF8" stroke="white" stroke-width="1.5" stroke-linecap="round" stroke-linejoin="round"/>
<path d="M16.6667 18C16.6667 19.8409 15.1743 21.3334 13.3333 21.3334C11.4924 21.3334 10 19.8409 10 18C10 16.1591 11.4924 14.6667 13.3333 14.6667C15.1743 14.6667 16.6667 16.1591 16.6667 18Z" fill="#176BF8" stroke="white" stroke-width="1.5" stroke-linecap="round" stroke-linejoin="round"/>
<path d="M25 34.6667V28V34.6667Z" fill="#176BF8"/>
<path d="M25 34.6667V28" stroke="white" stroke-width="1.5" stroke-linecap="round" stroke-linejoin="round"/>
<path d="M28.5 23.5L33.3333 20.5L28.5 23.5Z" fill="#176BF8"/>
<path d="M28.5 23.5L33.3333 20.5" stroke="white" stroke-width="1.5" stroke-linecap="round" stroke-linejoin="round"/>
<path d="M17 30L21.9999 27L17 30Z" fill="#176BF8"/>
<path d="M17 30L21.9999 27" stroke="white" stroke-width="1.5" stroke-linecap="round" stroke-linejoin="round"/>
<path d="M33.5 30L28.4998 26.5L33.5 30Z" fill="#176BF8"/>
<path d="M33.5 30L28.4998 26.5" stroke="white" stroke-width="1.5" stroke-linecap="round" stroke-linejoin="round"/>
<path d="M22 23L16.5225 19.8567L22 23Z" fill="#176BF8"/>
<path d="M22 23L16.5225 19.8567" stroke="white" stroke-width="1.5" stroke-linecap="round" stroke-linejoin="round"/>
<path d="M25 21V14.6667V21Z" fill="#176BF8"/>
<path d="M25 21V14.6667" stroke="white" stroke-width="1.5" stroke-linecap="round" stroke-linejoin="round"/>
<path d="M28.3334 24.6666C28.3334 26.5076 26.841 28 25.0001 28C23.1592 28 21.6667 26.5076 21.6667 24.6666C21.6667 22.8257 23.1592 21.3333 25.0001 21.3333C26.841 21.3333 28.3334 22.8257 28.3334 24.6666Z" fill="#176BF8" stroke="white" stroke-width="1.5" stroke-linecap="round" stroke-linejoin="round"/>
</svg>
